<?xml version="1.0" encoding="utf-8"?>
<!DOCTYPE svg PUBLIC "-//W3C//DTD SVG 1.1//EN" "http://www.w3.org/Graphics/SVG/1.1/DTD/svg11.dtd">
<svg version="1.1" xmlns="http://www.w3.org/2000/svg" x="0px" y="0px" width="255.667px" height="110px" viewBox="0 0 255.667 110" enable-background="new 0 0 255.667 110" xml:space="preserve">
<path fill="#E87025" d="M1.826,107.594V53.945l36.457,43.066V1.568h4.359v107.537L6.221,65.969v41.625H1.826z"/>
<path fill="#333333" d="M77.869,107.594v-5.695c-1.031,2.298-2.479,4.049-4.342,5.256s-4.061,1.811-6.592,1.811c-4.477,0-8.08-1.534-10.811-4.605c-2.73-3.07-4.096-7.124-4.096-12.164c0-4.992,1.348-9.064,4.043-12.217c2.695-3.151,6.176-4.729,10.441-4.729c2.648,0,4.939,0.58,6.873,1.74s3.428,2.865,4.482,5.115V76.41h4.324v31.184H77.869zM56.846,92.336c0,4.031,0.908,7.137,2.725,9.316s4.412,3.27,7.787,3.27c3.281,0,5.865-1.189,7.752-3.568c1.887-2.378,2.83-5.654,2.83-9.826c0-3.819-0.938-6.825-2.812-9.018c-1.875-2.191-4.441-3.287-7.699-3.287s-5.836,1.166-7.734,3.498C57.795,85.054,56.846,88.258,56.846,92.336z"/>
<path fill="#333333" d="M135.631,107.594h-4.324V76.41h4.324v4.887c1.031-1.969,2.391-3.468,4.078-4.5
c1.688-1.031,3.633-1.547,5.836-1.547c2.273,0,4.213,0.522,5.818,1.564c1.605,1.043,2.842,2.572,3.709,4.588c1.242-2.062,2.766-3.604,4.57-4.623s3.902-1.529,6.293-1.529c3.305,0,5.906,1.002,7.805,3.006s2.848,4.752,2.848,8.244v21.094h-4.324V88.223c0-3.046-0.627-5.344-1.881-6.891s-3.123-2.32-5.607-2.32c-2.977,0-5.162,0.973-6.557,2.918c-1.395,1.946-2.092,5.027-2.092,9.246v16.418h-4.289V88.223c0-3.187-0.598-5.52-1.793-6.996s-3.047-2.215-5.555-2.215c-3.047,0-5.285,0.984-6.715,2.953s-2.145,5.04-2.145,9.211V107.594z"/>
<path fill="#333333" d="M211.146,107.594v-5.695c-1.031,2.298-2.479,4.049-4.342,5.256s-4.061,1.811-6.592,1.811c-4.477,0-8.08-1.534-10.811-4.605c-2.73-3.07-4.096-7.124-4.096-12.164c0-4.992,1.348-9.064,4.043-12.217c2.695-3.151,6.176-4.729,10.441-4.729c2.648,0,4.939,0.58,6.873,1.74s3.428,2.865,4.482,5.115V76.41h4.324v31.184H211.146zM190.123,92.336c0,4.031,0.908,7.137,2.725,9.316s4.412,3.27,7.787,3.27c3.281,0,5.865-1.189,7.752-3.568c1.887-2.378,2.83-5.654,2.83-9.826c0-3.819-0.938-6.825-2.812-9.018c-1.875-2.191-4.441-3.287-7.699-3.287s-5.836,1.166-7.734,3.498C191.072,85.054,190.123,88.258,190.123,92.336z"/>
<path fill="#333333" d="M227.072,107.594V76.41h4.113v4.816c1.266-1.991,2.818-3.485,4.658-4.482c1.84-0.996,3.955-1.494,6.346-1.494c3.539,0,6.293,0.984,8.262,2.953s2.953,4.711,2.953,8.227v21.164h-4.395v-19.23c0-3.116-0.65-5.432-1.951-6.943s-3.311-2.268-6.029-2.268c-3.305,0-5.736,0.979-7.295,2.936c-1.559,1.957-2.338,5.033-2.338,9.229v16.277H227.072z"/>
<path fill="#E87025" d="M98,57.287c0,0-2.891,0.867-4,0.007c0-1.079,0-4.092,0-4.092l4,0.028V57.287z"/>
<path fill="#333333" d="M31.287,40.592H6.502c0.117,4.031,1.125,7.195,3.023,9.492c1.898,2.298,4.441,3.445,7.629,3.445c2.297,0,4.312-0.62,6.047-1.863c1.734-1.242,3.176-3.116,4.324-5.625l3.973,2.18c-1.594,3.164-3.545,5.49-5.854,6.979s-5.139,2.232-8.49,2.232c-4.57,0-8.268-1.529-11.092-4.588s-4.236-7.071-4.236-12.041c0-5.109,1.4-9.233,4.201-12.375c2.801-3.141,6.463-4.711,10.986-4.711c4.312,0,7.77,1.447,10.371,4.342c2.602,2.896,3.902,6.756,3.902,11.584V40.592zM26.154,36.9c-0.211-2.859-1.16-5.074-2.848-6.645c-1.688-1.569-3.973-2.355-6.855-2.355c-2.625,0-4.822,0.821-6.592,2.461c-1.77,1.641-2.795,3.82-3.076,6.539H26.154z"/>
<path fill="#333333" d="M57.343,56.061h-4.465V1.568h4.465V56.061z"/>
<path fill="#333333" d="M66.403,12.713c0-0.914,0.328-1.692,0.984-2.338c0.656-0.645,1.441-0.967,2.355-0.967s1.705,0.322,2.373,0.967c0.668,0.646,1.002,1.424,1.002,2.338c0,0.938-0.322,1.723-0.967,2.355s-1.447,0.949-2.408,0.949c-0.938,0-1.729-0.316-2.373-0.949S66.403,13.65,66.403,12.713z M67.493,56.061V24.877h4.465v31.184H67.493z"/>
<path fill="#333333" d="M94,41.668v11.534c0,0.117,1.352,0.187,2.096,0.187c0.676,0,0.904-0.062,1.904-0.158V41.668H94z"/>
<path fill="#333333" d="M117.11,78.203c-1.969-1.969-4.69-2.953-8.229-2.953c-2.391,0-4.444,0.498-6.284,1.494C100.757,77.741,99,79.235,98,81.227V57.287c-1,0.086-1.335,0.145-2.045,0.145c-0.681,0-1.955-0.056-1.955-0.138v50.374h4V91.316c0-4.195,0.839-7.271,2.397-9.229c1.559-1.956,4.021-2.936,7.325-2.936c2.719,0,4.877,0.756,6.178,2.268s2.1,3.827,2.1,6.943v19.305h4V86.43C120,82.914,119.079,80.172,117.11,78.203z"/>
<path fill="#333333" d="M87.366,49.68c-2.367-2.473-3.603-5.502-3.603-9.088c0-3.633,1.158-6.68,3.525-9.141s5.249-3.691,8.671-3.691c3.445,0,6.345,1.23,8.712,3.691s3.548,5.508,3.548,9.141c0,3.586-1.145,6.615-3.523,9.088C102.787,51.665,100,52.838,98,53.23v4.057c1-0.188,2.967-0.569,4.409-1.174c2.098-0.879,3.944-2.139,5.585-3.779c1.594-1.569,2.801-3.369,3.645-5.396c0.844-2.026,1.26-4.166,1.26-6.416s-0.431-4.395-1.286-6.434s-2.093-3.854-3.71-5.449c-1.617-1.594-3.464-2.812-5.538-3.656s-4.261-1.266-6.558-1.266c-2.25,0-4.395,0.422-6.434,1.266s-3.855,2.062-5.449,3.656c-1.57,1.57-2.777,3.375-3.621,5.414s-1.266,4.196-1.266,6.469c0,2.298,0.41,4.453,1.23,6.469c0.82,2.017,2.016,3.797,3.586,5.344c1.664,1.641,3.618,2.9,5.657,3.779C90.927,56.724,92,57.107,94,57.294v-4.092C91,52.782,89.219,51.615,87.366,49.68z"/>
<path fill="#333333" d="M122.924,28.568h-5.73v-3.691h5.73V12.08h4.254v12.797h6.258v3.691h-6.258v27.492h-4.254V28.568z"/>
</svg>